<svg xmlns="http://www.w3.org/2000/svg" viewBox="0 0 192 192" width="192" height="192">
  <defs>
    <linearGradient id="bg" x1="0%" y1="0%" x2="100%" y2="100%">
      <stop offset="0%" stop-color="#0a0e1a"/>
      <stop offset="100%" stop-color="#151b2e"/>
    </linearGradient>
    <linearGradient id="glow" x1="0%" y1="0%" x2="100%" y2="100%">
      <stop offset="0%" stop-color="#c084fc"/>
      <stop offset="50%" stop-color="#a78bfa"/>
      <stop offset="100%" stop-color="#818cf8"/>
    </linearGradient>
  </defs>
  <rect width="192" height="192" rx="36" fill="url(#bg)"/>
  <g transform="translate(96, 85)">
    <path d="M-4,-34 C-22,-34 -38,-22 -38,-4 C-38,7 -32,15 -24,19 C-28,24 -26,32 -19,36 C-13,38 -6,38 -4,34" 
          fill="none" stroke="url(#glow)" stroke-width="3.5" stroke-linecap="round"/>
    <path d="M4,-34 C22,-34 38,-22 38,-4 C38,7 32,15 24,19 C28,24 26,32 19,36 C13,38 6,38 4,34" 
          fill="none" stroke="url(#glow)" stroke-width="3.5" stroke-linecap="round"/>
    <line x1="0" y1="-34" x2="0" y2="34" stroke="url(#glow)" stroke-width="2" stroke-linecap="round" opacity="0.5"/>
    <circle cx="-17" cy="-15" r="2" fill="#a78bfa" opacity="0.8"/>
    <circle cx="17" cy="-15" r="2" fill="#a78bfa" opacity="0.8"/>
    <circle cx="-21" cy="7" r="1.5" fill="#c084fc" opacity="0.7"/>
    <circle cx="21" cy="7" r="1.5" fill="#c084fc" opacity="0.7"/>
    <path d="M-26,42 L-11,42 L-6,32 L0,49 L6,36 L11,42 L26,42" 
          fill="none" stroke="#a78bfa" stroke-width="2.5" stroke-linecap="round" stroke-linejoin="round" opacity="0.9"/>
  </g>
  <text x="96" y="158" text-anchor="middle" font-family="system-ui, sans-serif" 
        font-size="15" font-weight="700" fill="#a78bfa" letter-spacing="1.5">MINDSCREEN</text>
</svg>
